<svg width="46" height="46" viewBox="0 0 46 46" fill="none" xmlns="http://www.w3.org/2000/svg">
<g id="logo-footer.1b2f93d4.svg" clip-path="url(#clip0_27_1377)">
<path id="Vector" d="M4.80023 23.1234C4.79846 21.8799 4.92353 20.6394 5.17348 19.4213L1.1385 18.5891C1.07798 18.8917 1.02754 19.1943 0.977107 19.502C0.906495 19.9408 0.845967 20.3796 0.800574 20.8234C0.724918 21.58 0.68457 22.3366 0.68457 23.1234H4.81033H4.80023ZM4.82041 24.2078L0.714831 24.4499C0.714831 24.7172 0.755184 24.9845 0.780402 25.2518V25.4637C0.780402 25.6654 0.830836 25.8621 0.856055 26.0639C0.881273 26.2656 0.906494 26.4573 0.936756 26.659C0.936756 26.7296 0.936752 26.8002 0.972058 26.8658C1.09311 27.5618 1.23938 28.2579 1.426 28.9489L5.3954 27.8846C5.07318 26.684 4.87376 25.4538 4.80023 24.2128L4.82041 24.2078ZM24.3295 0.653646C23.9462 0.653646 23.5629 0.628418 23.1745 0.628418V4.74914C24.4179 4.74991 25.6581 4.87494 26.8766 5.12237L27.7037 1.0874C26.5911 0.860665 25.4633 0.715699 24.3295 0.653646ZM10.7972 4.3406L10.661 4.43643L10.3584 4.64826C10.1567 4.78444 9.95995 4.92063 9.76829 5.06689C9.57663 5.21316 9.54134 5.23837 9.43037 5.32411C9.31941 5.40986 9.07731 5.59648 8.926 5.7377L8.49223 6.11093L8.09378 6.45391C7.82646 6.70106 7.55916 6.95829 7.30193 7.21047L10.2121 10.1207C11.0936 9.24357 12.06 8.45624 13.0971 7.77032L10.7972 4.3406ZM3.06016 13.0662C3.03494 13.1116 3.01477 13.162 2.99459 13.2074C2.88363 13.4294 2.78276 13.6513 2.68188 13.8782C2.63649 13.9741 2.59109 14.0699 2.55074 14.1657C2.41961 14.4583 2.29855 14.7609 2.18255 15.0585C2.17217 15.0933 2.15867 15.127 2.1422 15.1594C1.87993 15.8655 1.63783 16.5867 1.44617 17.3282L5.41557 18.3924C5.73421 17.1896 6.17708 16.0233 6.73702 14.9122L3.06016 13.0662ZM21.8429 0.668776L21.046 0.73938H20.8292C20.6274 0.73938 20.4307 0.784771 20.234 0.815033C20.0373 0.845295 19.8355 0.860428 19.6338 0.895734L19.427 0.931044C18.731 1.04705 18.04 1.19836 17.3439 1.38497L18.4082 5.35437C19.6095 5.03629 20.8395 4.83862 22.08 4.76427L21.8429 0.668776ZM6.35874 8.1839C6.21247 8.3453 6.0763 8.51175 5.94012 8.68828L5.76863 8.88497C5.62741 9.0615 5.48618 9.24308 5.35 9.42465C5.21382 9.60623 5.14825 9.68188 5.05242 9.81301L4.76997 10.2115C4.63379 10.4031 4.50266 10.5948 4.37656 10.7915C4.31604 10.8823 4.25551 10.9731 4.20003 11.0639C4.04199 11.306 3.89069 11.5531 3.7461 11.8053C3.7294 11.835 3.71088 11.8636 3.69063 11.891L7.25149 13.9489C7.87492 12.8699 8.60486 11.8561 9.43037 10.9226L6.35874 8.1839ZM16.083 1.77334L15.8661 1.85404C15.624 1.93474 15.3618 2.02049 15.1449 2.11632L14.8725 2.22223L14.0706 2.55512L13.8739 2.6459C13.5914 2.77704 13.309 2.90817 13.0316 3.05444L12.8601 3.13514C12.5827 3.28141 12.3053 3.43272 12.0329 3.58907L11.927 3.64456L13.9798 7.20037C15.0562 6.58053 16.1937 6.07347 17.3742 5.68726L16.083 1.77334ZM14.3429 13.2074C14.2092 13.2074 14.0809 13.2606 13.9863 13.3552C13.8917 13.4498 13.8386 13.578 13.8386 13.7118V32.5803C13.8386 32.7141 13.8917 32.8424 13.9863 32.937C14.0809 33.0316 14.2092 33.0847 14.3429 33.0847H18.7058C18.8395 33.0847 18.9678 33.0316 19.0624 32.937C19.157 32.8424 19.2101 32.7141 19.2101 32.5803V13.6967C19.2101 13.5629 19.157 13.4346 19.0624 13.34C18.9678 13.2455 18.8395 13.1923 18.7058 13.1923L14.3429 13.2074ZM26.6849 23.5521C26.612 23.4237 26.5736 23.2786 26.5736 23.1309C26.5736 22.9833 26.612 22.8382 26.6849 22.7098L32.233 13.6311C32.233 13.6311 32.4902 13.2125 32.001 13.2125H27.27C27.1212 13.2176 26.9758 13.2583 26.8459 13.3312C26.7161 13.404 26.6055 13.5068 26.5235 13.6311L20.9754 22.7098C20.9025 22.8382 20.8641 22.9833 20.8641 23.1309C20.8641 23.2786 20.9025 23.4237 20.9754 23.5521L26.5235 32.6308C26.6058 32.7548 26.7164 32.8574 26.8462 32.9302C26.976 33.003 27.1213 33.0438 27.27 33.0494H32.001C32.001 33.0494 32.5054 33.0494 32.233 32.6308L26.6849 23.5521Z" fill="white"/>
<path id="Vector_2" d="M45.6296 21.8018C45.6296 21.5361 45.6095 21.2688 45.5691 20.9998V20.788C45.5691 20.5862 45.5187 20.3895 45.4935 20.1928C45.4683 19.9961 45.443 19.7944 45.4128 19.5926C45.4128 19.522 45.3825 19.4514 45.3724 19.3858C45.3169 19.058 45.2564 18.7402 45.1858 18.4225C45.1858 18.3216 45.1454 18.2258 45.1202 18.1299C45.0698 17.913 45.0194 17.6911 44.9639 17.4793C44.9639 17.4188 44.9387 17.3582 44.9235 17.3028C44.8075 16.874 44.6865 16.4504 44.5452 16.0317L44.4696 15.8098C44.3889 15.5728 44.3032 15.3307 44.2124 15.0936C44.1771 15.0028 44.1418 14.907 44.1014 14.8162C43.9955 14.5489 43.8845 14.2816 43.7685 14.0193L43.6777 13.8175C43.5466 13.5351 43.4155 13.2577 43.2742 12.9753C43.244 12.9198 43.2137 12.8643 43.1885 12.8088C43.0422 12.5314 42.8909 12.254 42.7346 11.9816L42.6791 11.8757C42.4571 11.4924 42.2251 11.1192 41.983 10.751L41.8923 10.6098L41.6804 10.3021C41.5392 10.1054 41.403 9.90867 41.2618 9.71701L40.9995 9.37404C40.8633 9.20255 40.7272 9.02602 40.5859 8.86967C40.4447 8.71331 40.3388 8.58218 40.2127 8.43591C40.0866 8.28965 39.9908 8.16859 39.8697 8.03746C39.6276 7.77014 39.3653 7.50283 39.1132 7.24056C38.8005 6.92785 38.4777 6.63026 38.1448 6.33773L37.6404 5.90901L37.4437 5.74257L36.9091 5.32394L36.5157 5.02636C36.3845 4.93053 36.2534 4.8347 36.1172 4.74391L35.5422 4.34545L35.2648 4.16892C35.0227 4.01761 34.7605 3.86631 34.5234 3.72004L34.4376 3.66455L32.3798 7.22038C33.4607 7.84278 34.4748 8.57459 35.406 9.4043C35.6784 9.64135 35.9407 9.90867 36.1979 10.1457C37.0765 11.0258 37.8639 11.9924 38.5483 13.0307C38.745 13.3334 38.9366 13.641 39.1182 13.9537C39.734 15.0322 40.2408 16.1693 40.6313 17.3481C40.7423 17.6911 40.8482 18.0341 40.944 18.3871C41.2544 19.5842 41.4453 20.8091 41.514 22.0438C41.514 22.4019 41.5493 22.7601 41.5493 23.1232C41.5489 24.3683 41.4238 25.6102 41.176 26.8303C41.1004 27.1884 41.0146 27.5365 40.9239 27.8845C40.6012 29.0866 40.1568 30.2527 39.5974 31.3646C39.436 31.7009 39.2678 32.0186 39.093 32.3179C38.4694 33.3967 37.7395 34.4105 36.9141 35.3441C36.672 35.6114 36.4097 35.8788 36.1727 36.1309C35.2933 37.0138 34.3248 37.8032 33.2826 38.4863C32.9851 38.683 32.6774 38.8747 32.3596 39.0512C31.2837 39.672 30.1461 40.1791 28.9652 40.5644C28.6222 40.6804 28.2793 40.7863 27.9262 40.8771C26.724 41.1997 25.492 41.3991 24.2493 41.4722C23.8912 41.4722 23.5331 41.5025 23.17 41.5025C21.9248 41.5045 20.6827 41.3794 19.4629 41.1293C19.1098 41.0586 18.7567 40.9729 18.4087 40.8771C17.2067 40.5562 16.0406 40.1134 14.9286 39.5556C14.6058 39.3892 14.288 39.2177 13.9753 39.0512C12.8933 38.4326 11.879 37.7023 10.9491 36.8724C10.6767 36.6353 10.4094 36.368 10.1572 36.1309C9.27848 35.2496 8.48948 34.2832 7.8018 33.2459L4.37207 35.5055L4.46287 35.6467C4.52844 35.7527 4.60408 35.8535 4.6747 35.9544C4.81088 36.1511 4.94707 36.3478 5.09333 36.5395C5.2396 36.7311 5.26481 36.7664 5.3556 36.8774C5.44639 36.9884 5.62292 37.2305 5.76414 37.3818C5.90536 37.5331 6.01128 37.6693 6.13737 37.8155L6.48035 38.214C6.72245 38.4813 6.98472 38.7436 7.22681 39.0008C7.53952 39.3135 7.86737 39.6111 8.19521 39.9036C8.35661 40.0499 8.52305 40.1911 8.69958 40.3323L8.89628 40.4988C9.07281 40.64 9.24935 40.7812 9.43093 40.9174L9.81929 41.215L10.2177 41.4974L10.7978 41.8959L11.0701 42.0724C11.3173 42.2237 11.5745 42.375 11.8115 42.5213L11.8973 42.5768C12.2756 42.7987 12.6639 43.0106 13.0624 43.2073C13.1079 43.2338 13.1551 43.2574 13.2036 43.2779C13.4205 43.3888 13.6424 43.4897 13.8694 43.5956L14.1569 43.7268C14.4545 43.8529 14.752 43.9739 15.0547 44.0899L15.1555 44.1303C15.4935 44.2564 15.8364 44.3774 16.1643 44.4884L16.2853 44.5287C16.6132 44.6346 16.9461 44.7305 17.2941 44.8212C17.7228 44.9373 18.1465 45.0432 18.5853 45.134C19.698 45.3592 20.8258 45.5025 21.9595 45.5627C22.3428 45.5627 22.7312 45.5879 23.1196 45.5879C23.5634 45.5879 24.0022 45.5879 24.441 45.5475C24.7134 45.5475 24.9807 45.5274 25.243 45.487H25.4598L26.055 45.4114C26.2517 45.3861 26.4534 45.366 26.6502 45.3307L26.862 45.2954C27.1848 45.2399 27.5076 45.1794 27.8253 45.1087L28.1128 45.0432L28.7685 44.8868C28.824 44.8868 28.8845 44.8616 28.94 44.8414C29.367 44.7271 29.7907 44.601 30.211 44.4631L30.4329 44.3875C30.675 44.3068 30.9121 44.221 31.1542 44.1252L31.4265 44.0193C31.6939 43.9134 31.9612 43.8024 32.2234 43.6864L32.4252 43.5956C32.7077 43.4645 32.9901 43.3334 33.2675 43.1921L33.434 43.1013C33.7114 42.9601 33.9888 42.8088 34.2662 42.6525L34.367 42.597C34.7503 42.375 35.1286 42.1481 35.4968 41.9009L35.6381 41.8102C35.7389 41.7446 35.8398 41.6689 35.9407 41.5983C36.1374 41.4621 36.3391 41.326 36.5308 41.1797L36.8637 40.9225C37.0402 40.7863 37.2167 40.6501 37.368 40.5089L37.8018 40.1407L38.2003 39.7927C38.4676 39.5506 38.7298 39.2883 38.9871 39.0462C39.2998 38.7335 39.6024 38.4107 39.8949 38.0778L40.3186 37.5734L40.4851 37.3767C40.6313 37.2002 40.7675 37.0186 40.9037 36.8371C41.0399 36.6555 41.1054 36.5798 41.2013 36.4487C41.2971 36.3175 41.3929 36.1814 41.4888 36.0502L41.8822 35.4702L42.0587 35.1978C42.21 34.9558 42.3613 34.6935 42.5076 34.4564C42.5278 34.429 42.5464 34.4004 42.5631 34.3707C42.7799 33.9874 42.9918 33.599 43.1935 33.2056C43.214 33.157 43.2376 33.1099 43.2641 33.0644C43.3701 32.8424 43.476 32.6205 43.5769 32.3935L43.708 32.1061C43.8358 31.8102 43.9568 31.5126 44.0711 31.2133C44.0711 31.178 44.1014 31.1427 44.1115 31.1124C44.2426 30.7695 44.3586 30.4265 44.4746 30.1037C44.4834 30.0642 44.4952 30.0254 44.5099 29.9877C44.6159 29.6548 44.7117 29.3219 44.8025 28.9789V28.9537C44.9134 28.5301 45.0194 28.1014 45.1101 27.6676C45.1858 27.2994 45.2514 26.9312 45.3068 26.558C45.4811 25.423 45.5688 24.2765 45.5691 23.1283C45.675 22.6794 45.6549 22.2406 45.6296 21.8018Z" fill="white"/>
</g>
<defs>
<clipPath id="clip0_27_1377">
<rect width="45" height="45" fill="white" transform="translate(0.674805 0.628418)"/>
</clipPath>
</defs>
</svg>
